<svg width="12" height="12" viewBox="0 0 12 12" fill="none" xmlns="http://www.w3.org/2000/svg">
<path d="M5.63829 1.34915C3.04767 1.34915 0.940033 3.45679 0.940033 6.04741C0.940033 8.63803 3.04767 10.7457 5.63829 10.7457C8.22891 10.7457 10.3365 8.63803 10.3365 6.04741C10.3365 3.45679 8.22891 1.34915 5.63829 1.34915ZM4.69911 8.12075L3.28702 6.71171C3.10344 6.52852 3.10307 6.2312 3.2862 6.04755C3.46944 5.86379 3.76698 5.86345 3.95064 6.0468L4.69817 6.79302L6.85326 4.63793C7.03671 4.45448 7.33414 4.45448 7.51759 4.63793C7.70104 4.82138 7.70104 5.11881 7.51759 5.30227L4.69911 8.12075Z" fill="#2FAB73"/>
</svg>
